<svg xmlns="http://www.w3.org/2000/svg" viewBox="0 0 128 128" role="img" aria-labelledby="title desc">
  <title id="title">Hundred Open Web Tools</title>
  <desc id="desc">A colorful tool icon with a gradient background</desc>
  <defs>
    <linearGradient id="bg" x1="0" x2="1" y1="0" y2="1">
      <stop offset="0%" stop-color="#4f46e5"/>
      <stop offset="100%" stop-color="#8b5cf6"/>
    </linearGradient>
    <linearGradient id="shine" x1="0" x2="1" y1="0" y2="0">
      <stop offset="0%" stop-color="#ffffff" stop-opacity="0.55"/>
      <stop offset="100%" stop-color="#ffffff" stop-opacity="0"/>
    </linearGradient>
  </defs>
  <rect width="128" height="128" rx="28" fill="url(#bg)"/>
  <circle cx="32" cy="34" r="12" fill="#ffffff" fill-opacity="0.22"/>
  <path d="M32 18h46v14H32zM32 42h60v14H32zM32 66h46v14H32zM32 90h72v14H32z" fill="#ffffff" fill-opacity="0.94"/>
  <path d="M14 24c18-18 52-18 72 0-12 1-22 8-30 18A44 44 0 0 0 14 24Z" fill="url(#shine)"/>
  <circle cx="101" cy="101" r="18" fill="#facc15" fill-opacity="0.9"/>
  <path d="M101 89l6 12 13 0-10 8 4 12-13-9-13 9 4-12-10-8 13 0 6-12Z" fill="#fff"/>
</svg>
